<?xml version="1.0" encoding="UTF-8"?>
<svg version="1.1" xmlns="http://www.w3.org/2000/svg" width="1851" height="624">
<path d="M0 0 C1.01191406 -0.02900391 2.02382813 -0.05800781 3.06640625 -0.08789062 C13.31935331 -0.17322245 22.12116525 2.56119929 30.05078125 9.1953125 C37.78624356 17.09101979 41.07950983 25.37895071 41.4375 36.1875 C41.20487037 47.05267197 37.7674689 54.49147195 30.2734375 62.22265625 C23.09859397 68.95443175 15.2281928 72.25600141 5.44091797 72.55151367 C-22.87914602 73.47506072 -48.91550441 82.22999121 -70.875 100.3125 C-71.79925781 101.07175781 -72.72351563 101.83101563 -73.67578125 102.61328125 C-96.04611303 121.94605738 -110.35173168 150.88118004 -112.875 180.3125 C-114.77816826 215.65010957 -103.86383026 246.90902555 -80.2265625 273.265625 C-62.31812389 292.06685967 -36.77609714 305.35359983 -10.875 308.3125 C-9.70710938 308.49232422 -9.70710938 308.49232422 -8.515625 308.67578125 C20.71064109 312.44252051 52.5025516 303.6407039 75.97363281 285.91650391 C102.60891166 264.86604159 118.5216343 236.57478173 122.64453125 202.98046875 C123.36068718 195.88515076 123.27915777 188.77871443 123.01489258 181.65820312 C122.72763728 171.05241123 125.38093786 162.56051966 132.125 154.3125 C138.9451875 147.12408642 147.28555698 143.26000192 157.125 142.3125 C167.65922241 142.17686624 176.61762803 145.10753545 184.30859375 152.39453125 C197.32488313 166.13861315 196.5635411 181.40749183 196.21386719 199.40136719 C194.81072988 245.36567828 175.67850974 289.13841725 144.125 322.3125 C143.5980957 322.87195313 143.07119141 323.43140625 142.52832031 324.0078125 C129.88967549 337.34899849 116.07592351 348.17574959 100.125 357.3125 C99.00222656 357.96734375 97.87945312 358.6221875 96.72265625 359.296875 C72.31892328 373.15599238 43.17511455 381.20525864 15.125 382.3125 C14.45404297 382.33973145 13.78308594 382.36696289 13.09179688 382.39501953 C-8.54583075 383.14750921 -30.14402385 380.58292507 -50.875 374.3125 C-51.58881836 374.09754883 -52.30263672 373.88259766 -53.03808594 373.66113281 C-101.69596741 358.59767946 -140.95265568 323.90696421 -164.96484375 279.48046875 C-174.3455129 261.679761 -179.8172738 242.96591811 -183.875 223.3125 C-184.02340332 222.60125977 -184.17180664 221.89001953 -184.32470703 221.15722656 C-193.15180295 176.18722792 -180.93446409 124.64212799 -155.95703125 86.80078125 C-125.75198168 42.48857264 -82.15717205 13.1666208 -29.48779297 2.82128906 C-19.61629025 0.96927896 -10.04435847 0.09523728 0 0 Z " fill="#078CCD" transform="translate(283.875,104.6875)"/>
<path d="M0 0 C-0.01160156 -0.63808594 -0.02320313 -1.27617187 -0.03515625 -1.93359375 C-0.04417969 -2.75988281 -0.05320312 -3.58617187 -0.0625 -4.4375 C-0.07410156 -5.26121094 -0.08570313 -6.08492187 -0.09765625 -6.93359375 C0 -9 0 -9 1 -10 C2.49870048 -10.09831146 4.00198539 -10.12798456 5.50390625 -10.12939453 C6.94044556 -10.13412277 6.94044556 -10.13412277 8.40600586 -10.13894653 C9.44764893 -10.1369223 10.48929199 -10.13489807 11.5625 -10.1328125 C12.62412354 -10.13376923 13.68574707 -10.13472595 14.77954102 -10.13571167 C17.02913472 -10.13639364 19.27873037 -10.13453819 21.52832031 -10.13037109 C24.98507071 -10.1250231 28.44169117 -10.13031554 31.8984375 -10.13671875 C34.07812529 -10.13605797 36.257813 -10.13477682 38.4375 -10.1328125 C39.9999646 -10.13584885 39.9999646 -10.13584885 41.59399414 -10.13894653 C42.55168701 -10.13579437 43.50937988 -10.13264221 44.49609375 -10.12939453 C45.34357178 -10.12859894 46.1910498 -10.12780334 47.06420898 -10.12698364 C49 -10 49 -10 50 -9 C50.10663588 -6.45621275 50.14778478 -3.93925178 50.14717102 -1.39463806 C50.15084771 -0.58836222 50.1545244 0.21791363 50.1583125 1.04862207 C50.16939557 3.77208572 50.17320114 6.49551127 50.17700195 9.21899414 C50.18326369 11.1636009 50.18991023 13.10820645 50.19691467 15.05281067 C50.21436457 20.35530537 50.22488971 25.65779102 50.2331202 30.96030736 C50.23826749 34.27629392 50.2443437 37.59227767 50.25063133 40.90826225 C50.26970423 51.29120849 50.2839245 61.67414758 50.2922433 72.05710799 C50.3019902 84.02479909 50.32823406 95.99230397 50.36874419 107.95992953 C50.39899441 117.21617568 50.41372105 126.47236879 50.41702431 135.72866338 C50.41936689 141.25242608 50.42822202 146.77599034 50.45348549 152.29969978 C50.47692369 157.50932296 50.48093663 162.71861937 50.47072411 167.92828178 C50.47023225 169.82922839 50.47644778 171.73019192 50.49028015 173.63108826 C50.63704953 195.01767389 46.22679018 213.31917142 32 230 C31.36191406 230.82757813 30.72382812 231.65515625 30.06640625 232.5078125 C16.07246692 249.38519113 -9.44069712 258.30592754 -30.59423828 260.80151367 C-46.36865353 262.10297497 -62.62015288 261.92004325 -78 258 C-78.65822754 257.83371094 -79.31645508 257.66742187 -79.99462891 257.49609375 C-94.76822692 253.64861705 -108.55023428 246.81523734 -121 238 C-121.81984375 237.42378906 -122.6396875 236.84757813 -123.484375 236.25390625 C-124.60585937 235.38572266 -124.60585937 235.38572266 -125.75 234.5 C-126.40484375 233.9946875 -127.0596875 233.489375 -127.734375 232.96875 C-129 231 -129 231 -128.96850586 227.81616211 C-127.70210396 222.826213 -125.37679322 220.50813784 -121.76953125 216.97265625 C-121.14149094 216.33887558 -120.51345062 215.70509491 -119.86637878 215.05210876 C-118.53962334 213.72128361 -117.20531323 212.39795241 -115.86401367 211.08178711 C-113.81525944 209.0652161 -111.80054734 207.01856264 -109.78710938 204.96679688 C-108.49150319 203.67515472 -107.19403743 202.38537459 -105.89453125 201.09765625 C-105.29429642 200.48527603 -104.69406158 199.87289581 -104.07563782 199.24195862 C-101.18966285 196.4505934 -99.77723234 195.10891741 -95.70727539 194.53857422 C-92.52222573 195.08143145 -91.11002132 196.02155289 -88.625 198.0625 C-79.98292002 204.49503154 -68.78348441 209.72492583 -58 211 C-56.96875 211.13148438 -55.9375 211.26296875 -54.875 211.3984375 C-40.48597536 212.84376364 -25.27103298 211.41992765 -13.1875 202.875 C-3.29383177 194.57708471 -1.22778947 184.09754625 -0.1484375 171.87109375 C-0.07496094 170.94490234 -0.07496094 170.94490234 0 170 C-1.00417969 170.47050781 -2.00835938 170.94101562 -3.04296875 171.42578125 C-27.32686581 182.57082447 -53.90963076 184.56259063 -79.1875 175.3125 C-92.48567768 170.12046709 -102.89167666 162.99026993 -113 153 C-114.09248047 152.01580078 -114.09248047 152.01580078 -115.20703125 151.01171875 C-131.69575499 135.82388051 -140.24124592 111.70865898 -141.22265625 89.77734375 C-141.93962976 64.30255228 -134.41930462 39.91509883 -116.9375 21 C-114.98969242 18.96389019 -113.00557265 16.98071018 -111 15 C-110.31164063 14.31292969 -109.62328125 13.62585938 -108.9140625 12.91796875 C-79.58023655 -14.49740022 -34.89791432 -16.59171838 0 0 Z M-80.14453125 56.66015625 C-88.71902904 67.47304925 -90.89011336 79.54939819 -90 93 C-88.08529117 104.71351287 -80.78352257 115.60570792 -71.375 122.625 C-60.42445239 129.94696378 -48.89092903 132.31323808 -35.9375 129.9375 C-23.59156269 126.90540306 -13.66162993 120.62082904 -6.95703125 109.66015625 C-0.42374145 97.67094443 1.50122652 86.5623223 -1.68359375 73.11328125 C-5.76879722 60.38560289 -14.41811016 50.87994752 -26.125 44.6875 C-45.14362195 35.34724344 -66.12442154 42.08036152 -80.14453125 56.66015625 Z " fill="#078CCD" transform="translate(1702,258)"/>
<path d="M0 0 C0.96385117 -0.00145523 1.92770233 -0.00291046 2.92076111 -0.00440979 C4.95574979 -0.00275153 6.9907511 0.0088015 9.02563477 0.02954102 C12.14458293 0.05852164 15.26183422 0.05014323 18.38085938 0.03710938 C20.35808119 0.04334604 22.33529764 0.05173641 24.3125 0.0625 C25.24691422 0.05956436 26.18132843 0.05662872 27.14405823 0.05360413 C28.01183395 0.0662883 28.87960968 0.07897247 29.77368164 0.09204102 C30.53661026 0.097444 31.29953888 0.10284698 32.08558655 0.1084137 C34.7883785 0.63121014 35.47662362 1.24847106 37.08984375 3.49609375 C37.37803638 6.08868378 37.48178234 8.43967237 37.4506073 11.0320282 C37.45317057 11.80638287 37.45573385 12.58073754 37.4583748 13.3785575 C37.46332845 15.98134119 37.44679403 18.58354878 37.43041992 21.1862793 C37.42957399 23.04876695 37.43004813 24.91125561 37.43174744 26.77374268 C37.43261014 31.83754028 37.41493992 36.90112582 37.39402556 41.96487403 C37.37530452 47.2539817 37.37351194 52.54309393 37.36994934 57.83222961 C37.36061541 67.85135388 37.3359834 77.87038024 37.30590087 87.88946134 C37.27239877 99.29437874 37.2558814 110.69930075 37.24081457 122.10425508 C37.20943502 145.56825564 37.15664835 169.03216921 37.08984375 192.49609375 C30.30891075 192.57205563 23.52808715 192.62465625 16.74682617 192.66088867 C14.43916727 192.67599051 12.13153714 192.69647344 9.82397461 192.72241211 C6.51018176 192.7587335 3.19676783 192.77580611 -0.1171875 192.7890625 C-1.66887383 192.81228828 -1.66887383 192.81228828 -3.25190735 192.83598328 C-4.21267685 192.83620987 -5.17344635 192.83643646 -6.16333008 192.83666992 C-7.00938309 192.84333176 -7.8554361 192.84999359 -8.72712708 192.8568573 C-11.44461698 192.40776971 -12.29960072 191.70483252 -13.91015625 189.49609375 C-14.59765625 185.80859375 -14.59765625 185.80859375 -14.91015625 182.49609375 C-15.60238281 182.810625 -16.29460937 183.12515625 -17.0078125 183.44921875 C-42.08927195 194.42029192 -68.88393093 195.82562281 -94.578125 185.9296875 C-119.36122875 175.26685154 -137.20360386 157.19254127 -147.91015625 132.49609375 C-152.47280076 120.92499842 -154.28889992 109.65382081 -154.22265625 97.24609375 C-154.2177417 96.15071289 -154.21282715 95.05533203 -154.20776367 93.92675781 C-153.87984433 71.15738371 -145.68463268 50.79898573 -130.91015625 33.49609375 C-130.27207031 32.6659375 -129.63398437 31.83578125 -128.9765625 30.98046875 C-115.29989915 14.53744816 -93.51037602 5.05680253 -72.91015625 1.49609375 C-68.12989708 1.08427244 -63.39374293 1.01870879 -58.59765625 1.05859375 C-57.32672119 1.06544189 -56.05578613 1.07229004 -54.74633789 1.0793457 C-39.8846783 1.33291226 -27.25238209 4.82498083 -13.91015625 11.49609375 C-13.99265625 10.42359375 -14.07515625 9.35109375 -14.16015625 8.24609375 C-13.91015625 4.49609375 -13.91015625 4.49609375 -12.51391602 2.29272461 C-8.51915999 -0.46371323 -4.74496108 -0.05717006 0 0 Z M-92.8359375 66.83203125 C-100.88738831 77.173066 -104.81712738 89.02328415 -103.55859375 102.16796875 C-101.29221028 114.67403659 -95.5230021 125.50430135 -85.22265625 133.12109375 C-73.91010228 140.76425428 -61.95651491 143.38049549 -48.453125 140.84765625 C-40.87055402 138.74288566 -34.94812956 135.50995851 -28.91015625 130.49609375 C-27.93949219 129.71105469 -27.93949219 129.71105469 -26.94921875 128.91015625 C-19.14513132 121.92396445 -14.49607368 111.05700632 -13.57421875 100.734375 C-13.42909985 86.14992508 -16.84820541 75.1676439 -26.9765625 64.2734375 C-35.55040453 56.06770318 -46.3974001 51.69312005 -58.22265625 51.18359375 C-71.51271622 51.57651726 -83.79240949 57.12282164 -92.8359375 66.83203125 Z " fill="#078CCD" transform="translate(651.91015625,246.50390625)"/>
<path d="M0 0 C1.05574219 0.37382812 2.11148438 0.74765625 3.19921875 1.1328125 C26.80102166 10.25924589 45.98094371 27.80411755 56.875 50.625 C59.38628034 56.60592915 61.3166551 62.73981873 63 69 C63.22816406 69.82371094 63.45632813 70.64742188 63.69140625 71.49609375 C65.19212499 78.05517917 65.23632415 84.67642229 65.3125 91.375 C65.33908691 92.82120728 65.33908691 92.82120728 65.36621094 94.29663086 C65.35703765 103.03036424 65.35703765 103.03036424 62 107 C59.47758839 108.26120581 57.724477 108.13887345 54.90011597 108.15821838 C53.82035492 108.1680072 52.74059387 108.17779602 51.62811279 108.18788147 C50.43840881 108.19363693 49.24870483 108.1993924 48.02294922 108.20532227 C46.14982559 108.22017166 46.14982559 108.22017166 44.23886108 108.23532104 C40.80934188 108.26154483 37.37984641 108.28339197 33.9502883 108.30332303 C30.36812915 108.32516594 26.78601268 108.35256291 23.20388794 108.37937927 C16.41827854 108.42932912 9.63264548 108.47425943 2.84698975 108.51740164 C-4.87724249 108.56675445 -12.60143194 108.62167982 -20.3256228 108.67708123 C-36.21704233 108.79093645 -52.10850119 108.89776776 -68 109 C-68.9881863 111.97355323 -68.9881863 111.97355323 -68.1015625 114.859375 C-59.883874 125.38149467 -50.55486837 132.89520678 -37 135 C-26.623492 135.86000949 -16.12897972 134.84297102 -7.59619141 128.45410156 C-2.08854021 124.99049554 3.36604909 125.29813883 9.70703125 125.37109375 C10.90937912 125.36868179 12.11172699 125.36626984 13.35050964 125.36378479 C15.87945878 125.36476057 18.40842998 125.37808937 20.93725586 125.40307617 C24.81762551 125.43754553 28.695737 125.4236782 32.57617188 125.40429688 C35.03646806 125.41119098 37.49675837 125.42085941 39.95703125 125.43359375 C41.7007476 125.42615395 41.7007476 125.42615395 43.47969055 125.41856384 C44.55478378 125.43440018 45.62987701 125.45023651 46.73754883 125.46655273 C48.15696526 125.4758506 48.15696526 125.4758506 49.60505676 125.4853363 C52 126 52 126 53.8210907 127.8419342 C55.20222607 130.37018723 55.32421694 132.08509187 54.75 134.90234375 C48.08579472 153.54129289 29.29920877 169.02321448 12.0390625 177.35131836 C-12.30691271 188.54024447 -38.89024754 190.57050453 -64.1875 181.3125 C-89.21570037 171.53466565 -107.80103492 153.567682 -119.06152344 129.21728516 C-128.99367736 105.75115041 -129.1139331 78.19451037 -119.5715332 54.62207031 C-114.14313604 41.97529913 -106.64861564 31.73744851 -97 22 C-96.195625 21.18273437 -95.39125 20.36546875 -94.5625 19.5234375 C-85.10371503 10.46914004 -73.29927305 4.31472625 -61 0 C-59.91589844 -0.39316406 -58.83179688 -0.78632813 -57.71484375 -1.19140625 C-39.70575129 -6.71933089 -17.72654817 -6.43454773 0 0 Z M-67.5546875 64.73828125 C-68.85643496 66.37227284 -68.85643496 66.37227284 -70 69 C-69.67 70.65 -69.34 72.3 -69 74 C-43.59 74 -18.18 74 8 74 C9.47428036 69.3461513 9.47428036 69.3461513 7.84765625 66.7890625 C-1.72443754 55.18525515 -11.72426533 47.90615753 -27 46 C-43.42586341 44.45039024 -57.01941564 52.95889438 -67.5546875 64.73828125 Z " fill="#078CCD" transform="translate(908,252)"/>
<path d="M0 0 C0.9343689 -0.00630432 1.86873779 -0.01260864 2.8314209 -0.019104 C4.34862732 -0.01303131 4.34862732 -0.01303131 5.89648438 -0.00683594 C6.93212524 -0.00874939 7.96776611 -0.01066284 9.03479004 -0.01263428 C11.22713463 -0.01399691 13.41948726 -0.01029508 15.61181641 -0.00195312 C18.97642054 0.00874514 22.34049069 -0.00184597 25.70507812 -0.01464844 C27.83138139 -0.01332686 29.95768433 -0.01076449 32.08398438 -0.00683594 C33.09545532 -0.0108844 34.10692627 -0.01493286 35.14904785 -0.019104 C36.08341675 -0.01279968 37.01778564 -0.00649536 37.98046875 0 C39.21718323 0.00238678 39.21718323 0.00238678 40.47888184 0.00482178 C42.49023438 0.25878906 42.49023438 0.25878906 44.49023438 2.25878906 C44.68554688 5.29785156 44.68554688 5.29785156 44.61523438 8.88378906 C44.5971875 10.07230469 44.57914063 11.26082031 44.56054688 12.48535156 C44.53734375 13.40058594 44.51414062 14.31582031 44.49023438 15.25878906 C45.32683594 14.73929687 46.1634375 14.21980469 47.02539062 13.68457031 C62.83109634 4.11801939 78.90594376 -0.1082831 97.42773438 -0.05371094 C99.06258789 -0.07788086 99.06258789 -0.07788086 100.73046875 -0.10253906 C111.41416101 -0.10888707 121.07916535 1.96616603 130.55273438 6.94628906 C131.22828369 7.2951416 131.90383301 7.64399414 132.59985352 8.00341797 C151.06067011 17.77459766 163.09352178 32.38984498 170.48242188 51.89550781 C173.07649351 60.55246781 173.78482781 68.72952932 173.76489258 77.74511719 C173.77000351 78.95280762 173.77511444 80.16049805 173.78038025 81.40478516 C173.79182111 84.68526231 173.79436344 87.96558111 173.79181695 91.24607277 C173.79074113 93.99019772 173.79564505 96.73429978 173.80042237 99.47841978 C173.81147168 105.94624293 173.81197795 112.41400795 173.8059082 118.88183594 C173.79984324 125.55425188 173.81225334 132.2264583 173.83347827 138.89883852 C173.85106403 144.63831567 173.85710127 150.37772587 173.85384053 156.11722898 C173.85202596 159.54110659 173.85468292 162.96483397 173.86855507 166.38868713 C173.88081898 170.19516502 173.87419034 174.00114791 173.86254883 177.80761719 C173.87019257 178.94420776 173.8778363 180.08079834 173.88571167 181.25183105 C173.87869736 182.28348389 173.87168304 183.31513672 173.86445618 184.37805176 C173.86462392 185.27763863 173.86479166 186.17722549 173.86496449 187.10407257 C173.74130355 187.81512901 173.61764261 188.52618546 173.49023438 189.25878906 C170.26849188 191.40661739 169.44686127 191.50528054 165.7434082 191.48583984 C164.7826387 191.48568878 163.8218692 191.48553772 162.83198547 191.48538208 C161.79752792 191.47505951 160.76307037 191.46473694 159.69726562 191.45410156 C158.63610031 191.45127167 157.574935 191.44844177 156.48161316 191.44552612 C153.0885394 191.43432091 149.69572851 191.40921553 146.30273438 191.38378906 C144.00391006 191.37375971 141.70508161 191.36463378 139.40625 191.35644531 C133.76748827 191.33438047 128.1288801 191.30089951 122.49023438 191.25878906 C122.48876781 190.70201823 122.48730125 190.1452474 122.48579025 189.57160473 C122.44862889 175.98160839 122.38924211 162.39186266 122.30633163 148.80206585 C122.2668985 142.22993184 122.23468937 135.65793098 122.21923828 129.08569336 C122.20404463 122.73777221 122.16955007 116.39021725 122.12192535 110.04245949 C122.10713964 107.62612918 122.09919498 105.20974659 122.09835052 102.7933712 C122.09597076 99.39692968 122.06880805 96.00149188 122.03613281 92.60522461 C122.04116318 91.61619141 122.04619354 90.6271582 122.05137634 89.6081543 C121.87946468 77.98479815 117.75810549 69.05838189 109.97070312 60.61035156 C103.16879319 54.08978583 93.67901404 50.56388395 84.33789062 50.13378906 C73.1449276 50.62511254 63.30335969 54.32658669 55.39257812 62.39941406 C49.21922881 69.89656015 45.41176182 78.17420692 45.33201599 87.9601593 C45.31733276 89.33356224 45.31733276 89.33356224 45.30235291 90.73471069 C45.29659744 91.72661407 45.29084198 92.71851746 45.28491211 93.74047852 C45.27501251 94.79459427 45.26511292 95.84871002 45.25491333 96.93476868 C45.22336327 100.41384649 45.19856649 103.89293795 45.17382812 107.37207031 C45.153253 109.78631441 45.13225638 112.20055495 45.1108551 114.61479187 C45.05569218 120.96543495 45.00625737 127.31611022 44.95800781 133.66680908 C44.90775062 140.14867006 44.85208656 146.63048435 44.796875 153.11230469 C44.6893641 165.82775931 44.58771979 178.54325382 44.49023438 191.25878906 C37.87002925 191.33483646 31.24993672 191.3873877 24.62939453 191.42358398 C22.37707306 191.43867301 20.12478099 191.45914662 17.87255859 191.48510742 C14.63566841 191.52148499 11.39916662 191.53851436 8.16210938 191.55175781 C6.65097565 191.5749836 6.65097565 191.5749836 5.10931396 191.59867859 C4.16864075 191.59890518 3.22796753 191.59913177 2.25878906 191.59936523 C1.43272156 191.60602707 0.60665405 191.6126889 -0.2444458 191.61955261 C-3.23691275 191.14298723 -4.47979333 190.53345452 -6.50976562 188.25878906 C-6.90701651 185.6504574 -7.04186278 183.45994619 -7.00424194 180.85020447 C-7.00907077 180.08951159 -7.01389961 179.3288187 -7.01887476 178.54507452 C-7.03017424 175.98828105 -7.01280585 173.43248145 -6.99560547 170.87573242 C-6.99775062 169.04604318 -7.00162724 167.21635526 -7.0071106 165.38667297 C-7.01682102 160.41153472 -7.00148004 155.43675419 -6.98120451 150.46165919 C-6.96366718 145.26290068 -6.96715792 140.06415377 -6.96792603 134.8653717 C-6.96605178 126.13504023 -6.94867028 117.40484763 -6.92138672 108.67456055 C-6.88992478 98.56968787 -6.87939079 88.4649673 -6.88085783 78.36004919 C-6.88207701 68.65253833 -6.87187937 58.94507719 -6.8552742 49.23758125 C-6.84819889 45.10004857 -6.84454633 40.96253348 -6.84348679 36.82499504 C-6.84148292 31.95687065 -6.8293145 27.08887479 -6.80915451 22.22079277 C-6.80329542 20.43008714 -6.8008556 18.63936673 -6.80200958 16.84865189 C-6.80298573 14.41242636 -6.7917322 11.97656498 -6.77719116 9.54039001 C-6.78028837 8.82454567 -6.78338557 8.10870133 -6.78657663 7.37116474 C-6.73032064 1.70060224 -5.70894545 0.0110179 0 0 Z " fill="#078CCD" transform="translate(1368.509765625,247.7412109375)"/>
<path d="M0 0 C1.50820312 0.76957031 1.50820312 0.76957031 3.046875 1.5546875 C11.18238647 5.95966651 17.43473464 11.59743072 24 18 C24.65742187 18.58394531 25.31484375 19.16789062 25.9921875 19.76953125 C40.66639934 33.12509272 50.09922326 56.1781902 51.14038086 75.62158203 C51.59573435 89.26401801 51.31223852 101.98342817 47 115 C46.69449219 115.95326172 46.69449219 115.95326172 46.3828125 116.92578125 C38.54093479 140.69344764 20.79592238 159.7777806 -1.19750977 171.30004883 C-23.70926631 182.46230815 -50.21480563 184.32334557 -74.1328125 176.74609375 C-99.48663339 168.09328585 -119.42069012 150.86060548 -131.28125 126.796875 C-142.37038248 103.0239339 -142.92376255 76.82149621 -134.875 52.0625 C-129.64983726 38.29979458 -122.36354848 27.34762905 -112 17 C-111.41863281 16.34773438 -110.83726563 15.69546875 -110.23828125 15.0234375 C-83.67086519 -14.28771674 -33.40466553 -17.73016863 0 0 Z M-80 57 C-88.30611238 67.9584844 -90.17450033 79.57902433 -89 93 C-86.63120049 104.57633661 -80.25187539 114.65110232 -71 122 C-59.26071316 129.13533473 -47.45185834 132.20831581 -33.74609375 129.3125 C-20.5030643 125.25333389 -10.81796769 116.81663604 -3.80078125 104.9765625 C1.27814498 94.81871005 2.32909097 82.82642394 -1 72 C-6.34258134 58.31152181 -14.11905264 49.45611809 -27.63671875 43.375 C-47.02520189 35.44846566 -66.0604105 42.11213911 -80 57 Z " fill="#078CCD" transform="translate(1292,258)"/>
<path d="M0 0 C1.21300781 0.4125 2.42601562 0.825 3.67578125 1.25 C16.36744361 6.13247557 27.34966221 13.91538619 34 26 C34.43054687 26.77859375 34.86109375 27.5571875 35.3046875 28.359375 C38.86583221 35.87461833 39.51282752 44.49262791 37.3046875 52.53125 C35.24293285 57.17452938 32.53529655 59.58760822 28 62 C21.19993303 64.26668899 10.76918424 64.38035141 4.25 61.3125 C0.36629675 58.54909576 -1.82048903 55.93010885 -4.2890625 51.890625 C-9.07906061 44.25736598 -14.63663498 39.00795087 -23.45703125 36.47265625 C-34.1598074 34.48335377 -43.92596383 36.0332825 -53.0625 42 C-55.00771934 44.00796836 -56.18972345 45.32608738 -57 48 C-56.91124775 51.46133793 -56.12121933 52.84939416 -53.9375 55.5625 C-45.21766134 62.7981108 -34.01663925 64.86363986 -23.203125 67.33984375 C26.64086425 78.7798912 26.64086425 78.7798912 39.75 98.25 C48.68170837 113.09539656 49.9803481 129.00516438 45.96484375 145.71484375 C42.06892536 158.97989382 33.01507445 169.26427644 21 176 C7.43035221 182.59414969 -7.89630718 186.53940454 -23 187 C-23.69786621 187.02578125 -24.39573242 187.0515625 -25.11474609 187.078125 C-49.38849718 187.87973494 -73.31579466 184.12005879 -92.1875 167.625 C-93.80683958 166.09927849 -95.41208956 164.55840535 -97 163 C-97.639375 162.38511719 -98.27875 161.77023437 -98.9375 161.13671875 C-106.9605975 152.77335596 -112.72985748 140.6080318 -113.3125 129 C-113.07012475 122.48138152 -111.16902599 117.73741186 -106.4375 113.1875 C-100.57696647 108.50550155 -94.35270171 106.63299624 -86.875 107 C-77.46533021 108.41145047 -71.57126703 114.69194123 -66 122 C-64.83350107 123.86221354 -63.68770972 125.73755143 -62.5625 127.625 C-57.12668455 136.35895067 -50.42179551 140.66105958 -40.53515625 143.34375 C-29.27254815 145.4344883 -18.64489719 144.62448938 -8.5625 139.125 C-4.88878661 136.07850597 -3.22131648 133.77053187 -2.625 129 C-3.06165583 125.50675336 -3.9500311 123.84845969 -6 121 C-13.62227344 115.6526917 -22.66149189 113.49629565 -31.61062622 111.47216797 C-35.15849861 110.66557504 -38.69219123 109.80103569 -42.2265625 108.9375 C-42.91248978 108.77048584 -43.59841705 108.60347168 -44.30513 108.43139648 C-63.68213513 103.66616577 -84.77442642 96.04535629 -95.72265625 78.2734375 C-102.92841284 65.44851293 -104.55488907 52.2609513 -101.28125 37.83203125 C-97.07401537 23.81396071 -88.61032499 13.26863383 -76.22265625 5.703125 C-72.55861506 3.76673475 -68.86701762 2.16810452 -65 0.6875 C-64.37230713 0.44507568 -63.74461426 0.20265137 -63.09790039 -0.04711914 C-43.8114983 -7.02472992 -19.31717635 -6.6253981 0 0 Z " fill="#078CCD" transform="translate(1095,252)"/>
<path d="M0 0 C0.9343689 -0.00630432 1.86873779 -0.01260864 2.8314209 -0.019104 C4.34862732 -0.01303131 4.34862732 -0.01303131 5.89648438 -0.00683594 C6.93212524 -0.00874939 7.96776611 -0.01066284 9.03479004 -0.01263428 C11.22713463 -0.01399691 13.41948726 -0.01029508 15.61181641 -0.00195312 C18.97642054 0.00874514 22.34049069 -0.00184597 25.70507812 -0.01464844 C27.83138139 -0.01332686 29.95768433 -0.01076449 32.08398438 -0.00683594 C33.09545532 -0.0108844 34.10692627 -0.01493286 35.14904785 -0.019104 C36.08341675 -0.01279968 37.01778564 -0.00649536 37.98046875 0 C39.21718323 0.00238678 39.21718323 0.00238678 40.47888184 0.00482178 C42.49023438 0.25878906 42.49023438 0.25878906 44.49023438 2.25878906 C44.69057335 5.32295505 44.76376666 8.29708383 44.75093079 11.36265564 C44.75666911 12.79537075 44.75666911 12.79537075 44.76252335 14.25702959 C44.77289383 17.47764176 44.76885355 20.698077 44.76489258 23.91870117 C44.76923681 26.21951972 44.77441899 28.52033681 44.78038025 30.82115173 C44.79381249 37.08551397 44.79434424 43.34981603 44.79181695 49.61418986 C44.7907501 54.83568708 44.79562324 60.05717197 44.80042237 65.27866656 C44.81216816 78.29754337 44.81128413 91.31638576 44.80486556 104.33526481 C44.79969576 115.64956663 44.81095177 126.96378237 44.82996378 138.27806716 C44.84932146 149.88677178 44.85731006 161.49543193 44.85384053 173.10415274 C44.85202305 179.62509352 44.85471001 186.14595547 44.86855507 192.66688347 C44.88108314 198.79735255 44.87923706 204.92764874 44.86614418 211.05811501 C44.86376787 213.31282483 44.86655051 215.56754663 44.8747673 217.82224274 C44.8851475 220.89101195 44.87720459 223.95919156 44.86445618 227.02793884 C44.87183046 227.92831798 44.87920475 228.82869712 44.88680249 229.75636047 C44.87599268 230.98614194 44.87599268 230.98614194 44.86496449 232.24076748 C44.86504701 233.30368721 44.86504701 233.30368721 44.8651312 234.38808006 C44.3601019 236.90814106 43.57076739 237.76853097 41.49023438 239.25878906 C39.3072052 239.61955261 39.3072052 239.61955261 36.7434082 239.59936523 C35.7826387 239.59913864 34.8218692 239.59891205 33.83198547 239.59867859 C32.79752792 239.58319473 31.76307037 239.56771088 30.69726562 239.55175781 C29.63610031 239.54751297 28.574935 239.54326813 27.48161316 239.53889465 C24.08839673 239.52208612 20.69577165 239.48442925 17.30273438 239.44628906 C15.00391482 239.43124507 12.70508597 239.41755617 10.40625 239.40527344 C4.76737595 239.37217551 -0.87115259 239.32195436 -6.50976562 239.25878906 C-6.55535427 209.10044181 -6.59076608 178.94209574 -6.61189628 148.78372166 C-6.61439781 145.22625709 -6.61698644 141.66879259 -6.61962891 138.11132812 C-6.62015353 137.40307704 -6.62067815 136.69482596 -6.62121867 135.96511273 C-6.62993011 124.48513554 -6.64570413 113.0051783 -6.66407122 101.52521296 C-6.68274973 89.75273536 -6.693878 77.98026824 -6.69794261 66.20777643 C-6.70055672 59.59239198 -6.70672769 52.97705285 -6.72122574 46.36168289 C-6.73474724 40.14182047 -6.73899933 33.92202225 -6.73598099 27.70214653 C-6.7365336 25.41315169 -6.74054322 23.12415483 -6.74817657 20.83517265 C-6.75805289 17.72227969 -6.75576142 14.60963267 -6.75027466 11.49673462 C-6.75610034 10.58040556 -6.76192602 9.66407649 -6.76792824 8.71997988 C-6.73835338 2.55897116 -6.49483208 0.01253461 0 0 Z " fill="#078CCD" transform="translate(718.509765625,199.7412109375)"/>
<path d="M0 0 C1.35553986 -0.00788544 1.35553986 -0.00788544 2.73846436 -0.01593018 C5.69821941 -0.02903422 8.65742786 -0.02042624 11.6171875 -0.01025391 C13.69026797 -0.0122774 15.76334774 -0.01519112 17.83642578 -0.01895142 C22.17031669 -0.02336178 26.50402145 -0.0169852 30.83789062 -0.00292969 C36.37577128 0.01416128 41.91321565 0.0043132 47.45108032 -0.01364708 C51.72863007 -0.0245197 56.00607744 -0.02102262 60.28363037 -0.0132637 C62.32484998 -0.01127131 64.36607907 -0.01368698 66.4072876 -0.02070236 C69.26656499 -0.02837423 72.12514887 -0.01663267 74.984375 0 C75.81684753 -0.00607269 76.64932007 -0.01214539 77.50701904 -0.0184021 C84.89753482 0.06070733 92.56560123 1.53075905 98.140625 6.76318359 C103.30153393 12.96820704 105.04305981 19.1695939 105.15625 27.13818359 C102.60350951 39.63159585 93.06892332 47.50986335 84.375 56.09912109 C82.87346194 57.59894566 81.37281512 59.09966297 79.87301636 60.60122681 C76.73868609 63.73390973 73.59606188 66.85793844 70.44677734 69.97558594 C66.41945232 73.96316762 62.41008873 77.96824131 58.40634346 81.97948265 C55.31343725 85.07546389 52.21297391 88.16378333 49.11001205 91.24968338 C47.62899061 92.72369778 46.14989162 94.19964648 44.67279434 95.67759323 C42.60576966 97.74281193 40.52919984 99.79793168 38.44970703 101.85058594 C37.84687897 102.4563446 37.2440509 103.06210327 36.62295532 103.68621826 C30.52030365 109.66831871 24.456733 113.47166362 15.7421875 113.63818359 C9.40988194 113.55425024 4.73673674 112.21514228 -0.1953125 108.20068359 C-5.96234542 101.18672464 -8.90930709 95.72962431 -8.5078125 86.38818359 C-7.43715157 78.12487746 -2.17111006 73.05639721 3.4921875 67.38818359 C4.21148437 66.66195801 4.93078125 65.93573242 5.671875 65.1875 C10.91811512 59.89350891 16.194258 54.63041757 21.4921875 49.38818359 C20.11667725 49.37416504 20.11667725 49.37416504 18.71337891 49.35986328 C15.26489325 49.31547899 11.81758237 49.25370435 8.36962891 49.18066406 C6.88601792 49.15268354 5.4022642 49.13135666 3.91845703 49.1171875 C-5.84163426 49.01846776 -15.0068473 48.82245522 -22.9453125 42.42333984 C-23.4609375 41.77236328 -23.9765625 41.12138672 -24.5078125 40.45068359 C-25.0440625 39.80228516 -25.5803125 39.15388672 -26.1328125 38.48583984 C-30.4569756 31.88903421 -30.1929547 25.04616538 -29.5078125 17.38818359 C-27.85911708 11.11919203 -23.8471368 6.87678936 -18.5078125 3.38818359 C-12.39277062 0.63034588 -6.63918438 -0.0484313 0 0 Z " fill="#FF2B2F" transform="translate(263.5078125,246.61181640625)"/>
</svg>
